<svg width="48" height="48" viewBox="0 0 48 48" fill="none" xmlns="http://www.w3.org/2000/svg">
<path fill-rule="evenodd" clip-rule="evenodd" d="M20.0765 6.59077C24.3432 5.30005 29.048 6.15546 32.4437 8.85181C35.2231 11.0589 36.7885 14.2339 36.8089 17.5338L36.7944 18.1002H37.0864C41.6427 18.1002 45.3618 21.6852 45.5766 26.1883L45.5864 26.6002C45.5864 31.2946 41.7808 35.1002 37.0864 35.1002C36.2579 35.1002 35.5864 34.4286 35.5864 33.6002C35.5864 32.7717 36.2579 32.1002 37.0864 32.1002C40.1239 32.1002 42.5864 29.6377 42.5864 26.6002C42.5864 23.6751 40.303 21.2834 37.4214 21.1102L37.0864 21.1002H35.0864C34.1254 21.1002 33.4123 20.2092 33.6228 19.2716C34.2883 16.3066 33.1419 13.237 30.5781 11.2012C27.9609 9.12304 24.2793 8.45365 20.9452 9.46226C17.6486 10.4595 15.222 12.9349 14.55 15.9287C14.3913 16.6355 13.7502 17.128 13.0263 17.099C9.32885 16.9509 6.05749 19.3154 5.20894 22.7096C4.36536 26.0839 6.14422 29.5686 9.48575 31.0251C10.2452 31.3561 10.5924 32.2401 10.2614 32.9995C9.93039 33.759 9.04641 34.1062 8.287 33.7752C3.61878 31.7403 1.09492 26.7964 2.29851 21.982C3.38475 17.637 7.22529 14.5274 11.7295 14.1344L11.9524 14.1182L12.0305 13.8924C13.244 10.6063 16.014 7.97998 19.5847 6.7498L20.0765 6.59077ZM23.0864 22.1009C23.8458 22.1009 24.4734 22.6652 24.5727 23.3973L24.5864 23.6009V37.9791L28.0257 34.5402C28.5583 34.0077 29.3916 33.9593 29.9788 34.395L30.1471 34.5402C30.6796 35.0727 30.728 35.9061 30.2923 36.4933L30.1471 36.6615L24.1471 42.6615C24.0025 42.8061 23.8357 42.915 23.6578 42.9882C23.5042 43.0515 23.3378 43.0901 23.1636 43.0989C23.138 43.1002 23.1123 43.1009 23.0864 43.1009C23.057 43.1009 23.0279 43.1 22.9989 43.0984C22.8274 43.0885 22.6636 43.0498 22.5123 42.9871C22.4009 42.941 22.2939 42.8809 22.194 42.8068L22.1929 42.8058C22.1337 42.7618 22.0778 42.7136 22.0257 42.6615L16.0257 36.6615C15.44 36.0757 15.44 35.126 16.0257 34.5402C16.5583 34.0077 17.3916 33.9593 17.9788 34.395L18.1471 34.5402L21.5864 37.9791V23.6009C21.5864 22.7724 22.258 22.1009 23.0864 22.1009Z" fill="#212121"/>
</svg>
